0
SECTION
2
HEADER
9
$INSUNITS
70
4
0
ENDSEC
0
SECTION
2
TABLES
0
TABLE
2
LTYPE
0
LTYPE
72
65
70
64
2
CONTINUOUS
3
______
73
0
40
0
0
ENDTAB
0
TABLE
2
LAYER
0
ENDTAB
0
ENDSEC
0
SECTION
2
ENTITIES
0
LINE
8
0
10
53.6399156
20
-11.9537766
11
66.7956122
21
-16.7420586
0
LINE
8
0
10
48.8516336
20
-25.1094732
11
62.0073302
21
-29.8977552
0
LINE
8
0
10
53.6399156
20
-11.9537766
11
48.8516336
21
-25.1094732
0
LINE
8
0
10
66.7956122
20
-16.7420586
11
62.0073302
21
-29.8977552
0
LINE
8
0
10
18.2718906
20
-4.3187854
11
31.4275872
21
-9.1070674
0
LINE
8
0
10
13.4836086
20
-17.474482
11
26.6393052
21
-22.262764
0
LINE
8
0
10
18.2718906
20
-4.3187854
11
13.4836086
21
-17.474482
0
LINE
8
0
10
31.4275872
20
-9.1070674
11
26.6393052
21
-22.262764
0
LINE
8
0
10
35.1863578
20
-10.1331278
11
48.3420544
21
-14.9214098
0
LINE
8
0
10
30.3980758
20
-23.2888244
11
43.5537724
21
-28.0771064
0
LINE
8
0
10
35.1863578
20
-10.1331278
11
30.3980758
21
-23.2888244
0
LINE
8
0
10
48.3420544
20
-14.9214098
11
43.5537724
21
-28.0771064
0
LINE
8
0
10
69.0152921
20
-21.7618127
11
82.1709887
21
-26.5500947
0
LINE
8
0
10
64.2270101
20
-34.9175093
11
77.3827067
21
-39.7057913
0
LINE
8
0
10
69.0152921
20
-21.7618127
11
64.2270101
21
-34.9175093
0
LINE
8
0
10
82.1709887
20
-26.5500947
11
77.3827067
21
-39.7057913
0
LINE
8
0
10
85.6219412
20
-28.3748939
11
98.7776378
21
-33.1631759
0
LINE
8
0
10
80.8336592
20
-41.5305905
11
93.9893558
21
-46.3188725
0
LINE
8
0
10
85.6219412
20
-28.3748939
11
80.8336592
21
-41.5305905
0
LINE
8
0
10
98.7776378
20
-33.1631759
11
93.9893558
21
-46.3188725
0
LINE
8
0
10
47.483553
20
-27.9285512
11
60.6392496
21
-32.7168332
0
LINE
8
0
10
42.695271
20
-41.0842478
11
55.8509676
21
-45.8725298
0
LINE
8
0
10
47.483553
20
-27.9285512
11
42.695271
21
-41.0842478
0
LINE
8
0
10
60.6392496
20
-32.7168332
11
55.8509676
21
-45.8725298
0
LINE
8
0
10
29.0299952
20
-26.1079024
11
42.1856918
21
-30.8961844
0
LINE
8
0
10
24.2417132
20
-39.263599
11
37.3974098
21
-44.051881
0
LINE
8
0
10
29.0299952
20
-26.1079024
11
24.2417132
21
-39.263599
0
LINE
8
0
10
42.1856918
20
-30.8961844
11
37.3974098
21
-44.051881
0
LINE
8
0
10
62.8589296
20
-37.7365872
11
76.0146262
21
-42.5248692
0
LINE
8
0
10
58.0706476
20
-50.8922838
11
71.2263442
21
-55.6805658
0
LINE
8
0
10
62.8589296
20
-37.7365872
11
58.0706476
21
-50.8922838
0
LINE
8
0
10
76.0146262
20
-42.5248692
11
71.2263442
21
-55.6805658
0
LINE
8
0
10
79.4655786
20
-44.3496684
11
92.6212752
21
-49.1379504
0
LINE
8
0
10
74.6772966
20
-57.505365
11
87.8329932
21
-62.293647
0
LINE
8
0
10
79.4655786
20
-44.3496684
11
74.6772966
21
-57.505365
0
LINE
8
0
10
92.6212752
20
-49.1379504
11
87.8329932
21
-62.293647
0
LINE
8
0
10
7.4982561
20
-32.2746408
11
20.6539527
21
-37.0629228
0
LINE
8
0
10
2.7099741
20
-45.4303374
11
15.8656707
21
-50.2186194
0
LINE
8
0
10
7.4982561
20
-32.2746408
11
2.7099741
21
-45.4303374
0
LINE
8
0
10
20.6539527
20
-37.0629228
11
15.8656707
21
-50.2186194
0
LINE
8
0
10
41.3271904
20
-43.9033257
11
54.482887
21
-48.6916077
0
LINE
8
0
10
36.5389084
20
-57.0590223
11
49.694605
21
-61.8473043
0
LINE
8
0
10
41.3271904
20
-43.9033257
11
36.5389084
21
-57.0590223
0
LINE
8
0
10
54.482887
20
-48.6916077
11
49.694605
21
-61.8473043
0
LINE
8
0
10
22.8736326
20
-42.0826769
11
36.0293292
21
-46.8709589
0
LINE
8
0
10
18.0853506
20
-55.2383735
11
31.2410472
21
-60.0266555
0
LINE
8
0
10
22.8736326
20
-42.0826769
11
18.0853506
21
-55.2383735
0
LINE
8
0
10
36.0293292
20
-46.8709589
11
31.2410472
21
-60.0266555
0
LINE
8
0
10
56.702567
20
-53.7113618
11
69.8582636
21
-58.4996438
0
LINE
8
0
10
51.914285
20
-66.8670584
11
65.0699816
21
-71.6553404
0
LINE
8
0
10
56.702567
20
-53.7113618
11
51.914285
21
-66.8670584
0
LINE
8
0
10
69.8582636
20
-58.4996438
11
65.0699816
21
-71.6553404
0
LINE
8
0
10
73.309216
20
-60.324443
11
86.4649126
21
-65.112725
0
LINE
8
0
10
68.520934
20
-73.4801396
11
81.6766306
21
-78.2684216
0
LINE
8
0
10
73.309216
20
-60.324443
11
68.520934
21
-73.4801396
0
LINE
8
0
10
86.4649126
20
-65.112725
11
81.6766306
21
-78.2684216
0
LINE
8
0
10
1.3418935
20
-48.2494154
11
14.4975901
21
-53.0376974
0
LINE
8
0
10
-3.4463885
20
-61.405112
11
9.7093081
21
-66.193394
0
LINE
8
0
10
1.3418935
20
-48.2494154
11
-3.4463885
21
-61.405112
0
LINE
8
0
10
14.4975901
20
-53.0376974
11
9.7093081
21
-66.193394
0
LINE
8
0
10
72.5209596
20
-78.8035328
11
85.4080276
21
-84.2737686
0
LINE
8
0
10
67.0507238
20
-91.6906008
11
79.9377918
21
-97.1608366
0
LINE
8
0
10
72.5209596
20
-78.8035328
11
67.0507238
21
-91.6906008
0
LINE
8
0
10
85.4080276
20
-84.2737686
11
79.9377918
21
-97.1608366
0
LINE
8
0
10
90.5491557
20
-92.277435
11
100.4486506
21
-102.1769299
0
LINE
8
0
10
80.6496608
20
-102.1769299
11
90.5491557
21
-112.0764248
0
LINE
8
0
10
90.5491557
20
-92.277435
11
80.6496608
21
-102.1769299
0
LINE
8
0
10
100.4486506
20
-102.1769299
11
90.5491557
21
-112.0764248
0
LINE
8
0
10
-3.4743992
20
-110.6769299
11
99.5491557
21
-110.6769299
0
LINE
8
0
10
-3.4743992
20
-4.7907747
11
99.5491557
21
-4.7907747
0
LINE
8
0
10
-3.4743992
20
-110.6769299
11
-3.4743992
21
-4.7907747
0
LINE
8
0
10
99.5491557
20
-110.6769299
11
99.5491557
21
-4.7907747
0
ENDSEC
0
EOF