M48
METRIC,TZ
T1C1.219
T2C1.223
T3C1.700
T4C2.400
T5C3.400
%
G90
G05
T1
X131885Y-66245
X131885Y-68785
X131885Y-71325
X131885Y-73865
X131885Y-76405
X131885Y-78945
X131885Y-84025
X134425Y-86768
X136965Y-86768
X139505Y-86768
X142045Y-86768
X144585Y-86768
X147125Y-66245
X147125Y-68785
X147125Y-71325
X147125Y-73865
X147125Y-76405
X147125Y-78945
X147125Y-81485
X147125Y-84025
X147125Y-86565
T2
X131885Y-81485
X131885Y-86565
T3
X22112Y-71149
X28265Y-55166
X32448Y-74911
X38601Y-58929
X39022Y-27199
X43642Y-64979
X49358Y-30961
X49812Y-48989
X53978Y-68741
X55945Y-33016
X60148Y-52751
X62092Y-66809
X66281Y-36779
X68252Y-50809
X72428Y-70571
X74422Y-34859
X77462Y-76619
X78588Y-54571
X83622Y-60639
X84758Y-38621
X87798Y-80381
X89782Y-44649
X92922Y-101628
X93958Y-64401
X94075Y-83216
X100118Y-48411
X100252Y-67259
X103048Y-105926
X104411Y-86979
X106392Y-51269
X108421Y-114081
X110588Y-71021
X116199Y-121859
X116728Y-55031
X162329Y-55039
X162861Y-121859
X168489Y-71009
X170639Y-114081
X172665Y-51276
X174649Y-86979
X176017Y-105919
X178825Y-67246
X178949Y-48419
X184985Y-83216
X185102Y-64391
X186143Y-101621
X189285Y-44656
X191242Y-80361
X194309Y-38609
X195438Y-60629
X200473Y-54582
X201578Y-76599
X204645Y-34846
X206642Y-70551
X210810Y-50820
X212772Y-36781
X216978Y-66789
X218929Y-52769
X223108Y-33019
X225082Y-68741
X229265Y-49006
X229682Y-30961
X235418Y-64979
X240018Y-27199
X240449Y-58919
X246619Y-74909
X250785Y-55156
X256955Y-71146
T4
X21282Y-74891
X25262Y-78574
X27435Y-58908
X31415Y-62592
X38192Y-30941
X42172Y-34624
X42812Y-68721
X46792Y-72404
X48982Y-52731
X52962Y-56414
X55115Y-36758
X59095Y-40442
X61262Y-70551
X65242Y-74234
X67422Y-54551
X71402Y-58234
X73592Y-38601
X76632Y-80361
X77572Y-42284
X80612Y-84044
X82792Y-64381
X86772Y-68064
X88952Y-48391
X91897Y-105321
X92932Y-52074
X93245Y-86958
X95679Y-109208
X97225Y-90642
X99422Y-71001
X103402Y-74684
X105562Y-55011
X106087Y-117121
X108138Y-122142
X109542Y-58694
X164098Y-58439
X165901Y-124193
X169515Y-58702
X170258Y-74409
X170922Y-122142
X175675Y-74672
X176418Y-90379
X177962Y-109222
X180718Y-51819
X181835Y-90642
X183385Y-109201
X186135Y-52082
X186871Y-67791
X192288Y-68054
X193011Y-83761
X196078Y-42009
X198428Y-84024
X201495Y-42272
X202243Y-57982
X207660Y-58245
X208411Y-73951
X213828Y-74214
X214541Y-40181
X219958Y-40444
X220698Y-56169
X226115Y-56432
X226851Y-72141
X231451Y-34361
X232268Y-72404
X236868Y-34624
X242218Y-62319
X247635Y-62582
X248388Y-78309
X253805Y-78572
T5
X27280Y-73030
X33433Y-57048
X44190Y-29080
X48810Y-66860
X54980Y-50870
X61113Y-34898
X67260Y-68690
X73420Y-52690
X79590Y-36740
X82630Y-78500
X88790Y-62520
X94950Y-46530
X97985Y-103777
X99243Y-85098
X105420Y-69140
X111560Y-53150
X112310Y-117970
X166750Y-117970
X167497Y-53158
X173657Y-69128
X179817Y-85098
X181080Y-103770
X184117Y-46538
X190270Y-62510
X196410Y-78480
X199477Y-36728
X205642Y-52701
X211810Y-68670
X217940Y-34900
X224097Y-50888
X230250Y-66860
X234850Y-29080
X245617Y-57038
X251787Y-73028
T4
G00X30307Y-69537
M15
G01X27206Y-68408
M16
G05
G00X36460Y-53554
M15
G01X33360Y-52426
M16
G05
G00X47217Y-25587
M15
G01X44116Y-24458
M16
G05
G00X51837Y-63367
M15
G01X48736Y-62238
M16
G05
G00X58007Y-47377
M15
G01X54906Y-46248
M16
G05
G00X64140Y-31404
M15
G01X61040Y-30276
M16
G05
G00X70287Y-65197
M15
G01X67186Y-64068
M16
G05
G00X76447Y-49197
M15
G01X73346Y-48068
M16
G05
G00X82617Y-33247
M15
G01X79516Y-32118
M16
G05
G00X85657Y-75007
M15
G01X82556Y-73878
M16
G05
G00X91817Y-59027
M15
G01X88716Y-57898
M16
G05
G00X97977Y-43037
M15
G01X94876Y-41908
M16
G05
G00X101191Y-100447
M15
G01X98153Y-99158
M16
G05
G00X102270Y-81604
M15
G01X99170Y-80476
M16
G05
G00X108447Y-65647
M15
G01X105346Y-64518
M16
G05
G00X114587Y-49657
M15
G01X111486Y-48528
M16
G05
G00X116530Y-116083
M15
G01X114197Y-113750
M16
G05
G00X164863Y-113750
M15
G01X162530Y-116083
M16
G05
G00X167570Y-48536
M15
G01X164470Y-49664
M16
G05
G00X173730Y-64506
M15
G01X170630Y-65634
M16
G05
G00X179890Y-80476
M15
G01X176790Y-81604
M16
G05
G00X180912Y-99151
M15
G01X177874Y-100440
M16
G05
G00X184190Y-41916
M15
G01X181090Y-43044
M16
G05
G00X190344Y-57888
M15
G01X187243Y-59017
M16
G05
G00X196484Y-73858
M15
G01X193383Y-74987
M16
G05
G00X199550Y-32106
M15
G01X196450Y-33234
M16
G05
G00X205715Y-48079
M15
G01X202614Y-49208
M16
G05
G00X211884Y-64048
M15
G01X208783Y-65177
M16
G05
G00X218014Y-30278
M15
G01X214913Y-31407
M16
G05
G00X224170Y-46266
M15
G01X221070Y-47394
M16
G05
G00X230324Y-62238
M15
G01X227223Y-63367
M16
G05
G00X234924Y-24458
M15
G01X231823Y-25587
M16
G05
G00X245690Y-52416
M15
G01X242590Y-53544
M16
G05
G00X251860Y-68406
M15
G01X248760Y-69534
M16
G05
T0
M30
