%TF.GenerationSoftware,KiCad,Pcbnew,(6.0.11)*%
%TF.CreationDate,2023-07-21T21:31:14+09:00*%
%TF.ProjectId,gku34-bottom-plate,676b7533-342d-4626-9f74-746f6d2d706c,rev?*%
%TF.SameCoordinates,Original*%
%TF.FileFunction,Legend,Top*%
%TF.FilePolarity,Positive*%
%FSLAX46Y46*%
G04 Gerber Fmt 4.6, Leading zero omitted, Abs format (unit mm)*
G04 Created by KiCad (PCBNEW (6.0.11)) date 2023-07-21 21:31:14*
%MOMM*%
%LPD*%
G01*
G04 APERTURE LIST*
G04 Aperture macros list*
%AMHorizOval*
0 Thick line with rounded ends*
0 $1 width*
0 $2 $3 position (X,Y) of the first rounded end (center of the circle)*
0 $4 $5 position (X,Y) of the second rounded end (center of the circle)*
0 Add line between two ends*
20,1,$1,$2,$3,$4,$5,0*
0 Add two circle primitives to create the rounded ends*
1,1,$1,$2,$3*
1,1,$1,$4,$5*%
G04 Aperture macros list end*
%ADD10C,0.200000*%
%ADD11C,0.350000*%
%ADD12HorizOval,2.399999X-1.550493X-0.564333X1.550493X0.564333X0*%
%ADD13HorizOval,2.399999X-1.550493X0.564333X1.550493X-0.564333X0*%
%ADD14HorizOval,2.399999X-1.166726X-1.166726X1.166726X1.166726X0*%
%ADD15HorizOval,2.399999X-1.166726X1.166726X1.166726X-1.166726X0*%
%ADD16HorizOval,2.399999X-1.518833X0.644706X1.518833X-0.644706X0*%
%ADD17HorizOval,2.399999X-1.518833X-0.644706X1.518833X0.644706X0*%
G04 APERTURE END LIST*
D10*
X133778571Y-88982380D02*
X134350000Y-88982380D01*
X134064285Y-89982380D02*
X134064285Y-88982380D01*
X135111904Y-89982380D02*
X135111904Y-89458571D01*
X135064285Y-89363333D01*
X134969047Y-89315714D01*
X134778571Y-89315714D01*
X134683333Y-89363333D01*
X135111904Y-89934761D02*
X135016666Y-89982380D01*
X134778571Y-89982380D01*
X134683333Y-89934761D01*
X134635714Y-89839523D01*
X134635714Y-89744285D01*
X134683333Y-89649047D01*
X134778571Y-89601428D01*
X135016666Y-89601428D01*
X135111904Y-89553809D01*
X135588095Y-89315714D02*
X135588095Y-90315714D01*
X135588095Y-89363333D02*
X135683333Y-89315714D01*
X135873809Y-89315714D01*
X135969047Y-89363333D01*
X136016666Y-89410952D01*
X136064285Y-89506190D01*
X136064285Y-89791904D01*
X136016666Y-89887142D01*
X135969047Y-89934761D01*
X135873809Y-89982380D01*
X135683333Y-89982380D01*
X135588095Y-89934761D01*
X136873809Y-89934761D02*
X136778571Y-89982380D01*
X136588095Y-89982380D01*
X136492857Y-89934761D01*
X136445238Y-89839523D01*
X136445238Y-89458571D01*
X136492857Y-89363333D01*
X136588095Y-89315714D01*
X136778571Y-89315714D01*
X136873809Y-89363333D01*
X136921428Y-89458571D01*
X136921428Y-89553809D01*
X136445238Y-89649047D01*
X138254761Y-89982380D02*
X138159523Y-89934761D01*
X138111904Y-89887142D01*
X138064285Y-89791904D01*
X138064285Y-89506190D01*
X138111904Y-89410952D01*
X138159523Y-89363333D01*
X138254761Y-89315714D01*
X138397619Y-89315714D01*
X138492857Y-89363333D01*
X138540476Y-89410952D01*
X138588095Y-89506190D01*
X138588095Y-89791904D01*
X138540476Y-89887142D01*
X138492857Y-89934761D01*
X138397619Y-89982380D01*
X138254761Y-89982380D01*
X139016666Y-89315714D02*
X139016666Y-89982380D01*
X139016666Y-89410952D02*
X139064285Y-89363333D01*
X139159523Y-89315714D01*
X139302380Y-89315714D01*
X139397619Y-89363333D01*
X139445238Y-89458571D01*
X139445238Y-89982380D01*
X140540476Y-89315714D02*
X140921428Y-89315714D01*
X140683333Y-88982380D02*
X140683333Y-89839523D01*
X140730952Y-89934761D01*
X140826190Y-89982380D01*
X140921428Y-89982380D01*
X141254761Y-89982380D02*
X141254761Y-88982380D01*
X141683333Y-89982380D02*
X141683333Y-89458571D01*
X141635714Y-89363333D01*
X141540476Y-89315714D01*
X141397619Y-89315714D01*
X141302380Y-89363333D01*
X141254761Y-89410952D01*
X142159523Y-89982380D02*
X142159523Y-89315714D01*
X142159523Y-88982380D02*
X142111904Y-89030000D01*
X142159523Y-89077619D01*
X142207142Y-89030000D01*
X142159523Y-88982380D01*
X142159523Y-89077619D01*
X142588095Y-89934761D02*
X142683333Y-89982380D01*
X142873809Y-89982380D01*
X142969047Y-89934761D01*
X143016666Y-89839523D01*
X143016666Y-89791904D01*
X142969047Y-89696666D01*
X142873809Y-89649047D01*
X142730952Y-89649047D01*
X142635714Y-89601428D01*
X142588095Y-89506190D01*
X142588095Y-89458571D01*
X142635714Y-89363333D01*
X142730952Y-89315714D01*
X142873809Y-89315714D01*
X142969047Y-89363333D01*
X144159523Y-89934761D02*
X144254761Y-89982380D01*
X144445238Y-89982380D01*
X144540476Y-89934761D01*
X144588095Y-89839523D01*
X144588095Y-89791904D01*
X144540476Y-89696666D01*
X144445238Y-89649047D01*
X144302380Y-89649047D01*
X144207142Y-89601428D01*
X144159523Y-89506190D01*
X144159523Y-89458571D01*
X144207142Y-89363333D01*
X144302380Y-89315714D01*
X144445238Y-89315714D01*
X144540476Y-89363333D01*
X145016666Y-89982380D02*
X145016666Y-89315714D01*
X145016666Y-88982380D02*
X144969047Y-89030000D01*
X145016666Y-89077619D01*
X145064285Y-89030000D01*
X145016666Y-88982380D01*
X145016666Y-89077619D01*
X145921428Y-89982380D02*
X145921428Y-88982380D01*
X145921428Y-89934761D02*
X145826190Y-89982380D01*
X145635714Y-89982380D01*
X145540476Y-89934761D01*
X145492857Y-89887142D01*
X145445238Y-89791904D01*
X145445238Y-89506190D01*
X145492857Y-89410952D01*
X145540476Y-89363333D01*
X145635714Y-89315714D01*
X145826190Y-89315714D01*
X145921428Y-89363333D01*
X146778571Y-89934761D02*
X146683333Y-89982380D01*
X146492857Y-89982380D01*
X146397619Y-89934761D01*
X146350000Y-89839523D01*
X146350000Y-89458571D01*
X146397619Y-89363333D01*
X146492857Y-89315714D01*
X146683333Y-89315714D01*
X146778571Y-89363333D01*
X146826190Y-89458571D01*
X146826190Y-89553809D01*
X146350000Y-89649047D01*
X135674761Y-91311904D02*
X135674761Y-91883333D01*
X135636666Y-91997619D01*
X135560476Y-92073809D01*
X135446190Y-92111904D01*
X135370000Y-92111904D01*
X136436666Y-92111904D02*
X136055714Y-92111904D01*
X136055714Y-91311904D01*
X137160476Y-92035714D02*
X137122380Y-92073809D01*
X137008095Y-92111904D01*
X136931904Y-92111904D01*
X136817619Y-92073809D01*
X136741428Y-91997619D01*
X136703333Y-91921428D01*
X136665238Y-91769047D01*
X136665238Y-91654761D01*
X136703333Y-91502380D01*
X136741428Y-91426190D01*
X136817619Y-91350000D01*
X136931904Y-91311904D01*
X137008095Y-91311904D01*
X137122380Y-91350000D01*
X137160476Y-91388095D01*
X137731904Y-91311904D02*
X137731904Y-91883333D01*
X137693809Y-91997619D01*
X137617619Y-92073809D01*
X137503333Y-92111904D01*
X137427142Y-92111904D01*
X138493809Y-92111904D02*
X138112857Y-92111904D01*
X138112857Y-91311904D01*
X139217619Y-92035714D02*
X139179523Y-92073809D01*
X139065238Y-92111904D01*
X138989047Y-92111904D01*
X138874761Y-92073809D01*
X138798571Y-91997619D01*
X138760476Y-91921428D01*
X138722380Y-91769047D01*
X138722380Y-91654761D01*
X138760476Y-91502380D01*
X138798571Y-91426190D01*
X138874761Y-91350000D01*
X138989047Y-91311904D01*
X139065238Y-91311904D01*
X139179523Y-91350000D01*
X139217619Y-91388095D01*
X139789047Y-91311904D02*
X139789047Y-91883333D01*
X139750952Y-91997619D01*
X139674761Y-92073809D01*
X139560476Y-92111904D01*
X139484285Y-92111904D01*
X140550952Y-92111904D02*
X140170000Y-92111904D01*
X140170000Y-91311904D01*
X141274761Y-92035714D02*
X141236666Y-92073809D01*
X141122380Y-92111904D01*
X141046190Y-92111904D01*
X140931904Y-92073809D01*
X140855714Y-91997619D01*
X140817619Y-91921428D01*
X140779523Y-91769047D01*
X140779523Y-91654761D01*
X140817619Y-91502380D01*
X140855714Y-91426190D01*
X140931904Y-91350000D01*
X141046190Y-91311904D01*
X141122380Y-91311904D01*
X141236666Y-91350000D01*
X141274761Y-91388095D01*
X141846190Y-91311904D02*
X141846190Y-91883333D01*
X141808095Y-91997619D01*
X141731904Y-92073809D01*
X141617619Y-92111904D01*
X141541428Y-92111904D01*
X142608095Y-92111904D02*
X142227142Y-92111904D01*
X142227142Y-91311904D01*
X143331904Y-92035714D02*
X143293809Y-92073809D01*
X143179523Y-92111904D01*
X143103333Y-92111904D01*
X142989047Y-92073809D01*
X142912857Y-91997619D01*
X142874761Y-91921428D01*
X142836666Y-91769047D01*
X142836666Y-91654761D01*
X142874761Y-91502380D01*
X142912857Y-91426190D01*
X142989047Y-91350000D01*
X143103333Y-91311904D01*
X143179523Y-91311904D01*
X143293809Y-91350000D01*
X143331904Y-91388095D01*
D11*
X201494762Y-42271779D03*
X204645152Y-34846482D03*
D12*
X198000000Y-32670000D03*
D11*
X194308534Y-38608704D03*
X199476843Y-36727593D03*
X196078056Y-42008526D03*
X72428309Y-70571111D03*
D13*
X68736843Y-64632407D03*
D11*
X61261860Y-70550731D03*
X67260000Y-68690000D03*
X65242081Y-74234186D03*
X62091691Y-66808889D03*
X147125000Y-84025000D03*
X147125000Y-81485000D03*
X131885000Y-66245000D03*
X144585000Y-86768200D03*
X134425000Y-86768200D03*
X147125000Y-76405000D03*
X147125000Y-86565000D03*
X131885000Y-68785000D03*
X139505000Y-86768200D03*
X147125000Y-68785000D03*
X131885000Y-84025000D03*
X131885000Y-71325000D03*
X131885000Y-76405000D03*
X147125000Y-73865000D03*
X131885000Y-86565000D03*
X147125000Y-78945000D03*
X136965000Y-86768200D03*
X131885000Y-73865000D03*
X131885000Y-78945000D03*
X147125000Y-71325000D03*
X131885000Y-81485000D03*
X142045000Y-86768200D03*
X147125000Y-66245000D03*
X67421860Y-54550731D03*
X68251691Y-50808889D03*
X78588309Y-54571111D03*
X71402081Y-58234186D03*
X73420000Y-52690000D03*
D13*
X74896843Y-48632407D03*
D11*
X111560000Y-53150000D03*
X109542081Y-58694186D03*
X105561860Y-55010731D03*
X116728309Y-55031111D03*
D13*
X113036843Y-49092407D03*
D11*
X106391691Y-51268889D03*
X223108309Y-33018889D03*
X219957919Y-40444186D03*
D12*
X216463157Y-30842407D03*
D11*
X217940000Y-34900000D03*
X214541213Y-40180933D03*
X212771691Y-36781111D03*
X43641691Y-64978889D03*
X46792081Y-72404186D03*
D13*
X50286843Y-62802407D03*
D11*
X42811860Y-68720731D03*
X48810000Y-66860000D03*
X53978309Y-68741111D03*
X110588309Y-71021111D03*
X100251691Y-67258889D03*
X99421860Y-71000731D03*
X103402081Y-74684186D03*
D13*
X106896843Y-65082407D03*
D11*
X105420000Y-69140000D03*
X229681691Y-30961111D03*
D12*
X233373157Y-25022407D03*
D11*
X240018309Y-27198889D03*
X236867919Y-34624186D03*
X234850000Y-29080000D03*
X231451213Y-34360933D03*
D13*
X62590000Y-30840000D03*
D11*
X55944848Y-33016482D03*
X66281466Y-36778704D03*
X61113157Y-34897593D03*
X55115017Y-36758324D03*
X59095238Y-40441779D03*
X166750000Y-117970000D03*
X170639087Y-114080913D03*
X162860913Y-121859087D03*
X170921930Y-122141930D03*
X165901472Y-124192540D03*
D14*
X163696713Y-114916713D03*
D11*
X201578309Y-76598889D03*
X198427919Y-84024186D03*
X191241691Y-80361111D03*
D12*
X194933157Y-74422407D03*
D11*
X196410000Y-78480000D03*
X193011213Y-83760933D03*
D12*
X250310000Y-68970000D03*
D11*
X248388056Y-78308526D03*
X253804762Y-78571779D03*
X256955152Y-71146482D03*
X251786843Y-73027593D03*
X246618534Y-74908704D03*
D12*
X228773157Y-62802407D03*
D11*
X230250000Y-66860000D03*
X226851213Y-72140933D03*
X235418309Y-64978889D03*
X225081691Y-68741111D03*
X232267919Y-72404186D03*
X82630000Y-78500000D03*
X76631860Y-80360731D03*
X87798309Y-80381111D03*
X77461691Y-76618889D03*
D13*
X84106843Y-74442407D03*
D11*
X80612081Y-84044186D03*
X202242904Y-57982044D03*
X205641691Y-52701111D03*
X207659610Y-58245297D03*
X200473382Y-54582222D03*
X210810000Y-50820000D03*
D12*
X204164848Y-48643518D03*
D11*
X52962081Y-56414186D03*
X60148309Y-52751111D03*
D13*
X56456843Y-46812407D03*
D11*
X48981860Y-52730731D03*
X49811691Y-48988889D03*
X54980000Y-50870000D03*
X184116843Y-46537593D03*
X189285152Y-44656482D03*
X180718056Y-51818526D03*
X186134762Y-52081779D03*
D12*
X182640000Y-42480000D03*
D11*
X178948534Y-48418704D03*
X25262081Y-78574186D03*
X21281860Y-74890731D03*
X27280000Y-73030000D03*
X32448309Y-74911111D03*
X22111691Y-71148889D03*
D13*
X28756843Y-68972407D03*
D11*
X216978309Y-66788889D03*
X208411213Y-73950933D03*
X206641691Y-70551111D03*
D12*
X210333157Y-64612407D03*
D11*
X213827919Y-74214186D03*
X211810000Y-68670000D03*
X93245017Y-86958324D03*
X94074848Y-83216482D03*
X97225238Y-90641779D03*
D13*
X100720000Y-81040000D03*
D11*
X104411466Y-86978704D03*
X99243157Y-85097593D03*
X173656843Y-69127593D03*
D12*
X172180000Y-65070000D03*
D11*
X170258056Y-74408526D03*
X168488534Y-71008704D03*
X178825152Y-67246482D03*
X175674762Y-74671779D03*
D15*
X115363287Y-114916713D03*
D11*
X106087460Y-117121472D03*
X116199087Y-121859087D03*
X112310000Y-117970000D03*
X108420913Y-114080913D03*
X108138070Y-122141930D03*
X95679426Y-109208156D03*
X91897437Y-105321440D03*
X103047517Y-105926198D03*
X97984740Y-103777177D03*
D16*
X99671917Y-99802437D03*
D11*
X92921963Y-101628156D03*
X162328534Y-55038704D03*
X167496843Y-53157593D03*
X164098056Y-58438526D03*
D12*
X166020000Y-49100000D03*
D11*
X172665152Y-51276482D03*
X169514762Y-58701779D03*
X88790000Y-62520000D03*
X83621691Y-60638889D03*
D13*
X90266843Y-58462407D03*
D11*
X93958309Y-64401111D03*
X82791860Y-64380731D03*
X86772081Y-68064186D03*
X229265152Y-49006482D03*
X220698056Y-56168526D03*
X224096843Y-50887593D03*
X226114762Y-56431779D03*
X218928534Y-52768704D03*
D12*
X222620000Y-46830000D03*
D11*
X176017223Y-105919021D03*
X181080000Y-103770000D03*
X186142777Y-101620979D03*
D17*
X179392823Y-99795260D03*
D11*
X177962254Y-109221574D03*
X183385314Y-109200979D03*
X49358309Y-30961111D03*
X42172081Y-34624186D03*
D13*
X45666843Y-25022407D03*
D11*
X38191860Y-30940731D03*
X39021691Y-27198889D03*
X44190000Y-29080000D03*
D12*
X188793157Y-58452407D03*
D11*
X190270000Y-62510000D03*
X186871213Y-67790933D03*
X195438309Y-60628889D03*
X192287919Y-68054186D03*
X185101691Y-64391111D03*
D13*
X81066843Y-32682407D03*
D11*
X79590000Y-36740000D03*
X74421691Y-34858889D03*
X84758309Y-38621111D03*
X77572081Y-42284186D03*
X73591860Y-38600731D03*
X184985152Y-83216482D03*
X179816843Y-85097593D03*
X181834762Y-90641779D03*
X176418056Y-90378526D03*
X174648534Y-86978704D03*
D12*
X178340000Y-81040000D03*
X244140000Y-52980000D03*
D11*
X242218056Y-62318526D03*
X245616843Y-57037593D03*
X240448534Y-58918704D03*
X250785152Y-55156482D03*
X247634762Y-62581779D03*
X88951860Y-48390731D03*
X92932081Y-52074186D03*
X94950000Y-46530000D03*
D13*
X96426843Y-42472407D03*
D11*
X89781691Y-44648889D03*
X100118309Y-48411111D03*
X28264848Y-55166482D03*
X38601466Y-58928704D03*
X31415238Y-62591779D03*
X33433157Y-57047593D03*
X27435017Y-58908324D03*
D13*
X34910000Y-52990000D03*
M02*
