M48
; DRILL file {KiCad (6.0.11)} date Mon Mar 25 22:10:57 2024
; FORMAT={-:-/ absolute / metric / decimal}
; #@! TF.CreationDate,2024-03-25T22:10:57+09:00
; #@! TF.GenerationSoftware,Kicad,Pcbnew,(6.0.11)
; #@! TF.FileFunction,MixedPlating,1,2
FMAT,2
METRIC
; #@! TA.AperFunction,Plated,PTH,ViaDrill
T1C0.400
; #@! TA.AperFunction,Plated,PTH,ComponentDrill
T2C0.800
; #@! TA.AperFunction,Plated,PTH,ComponentDrill
T3C1.200
; #@! TA.AperFunction,NonPlated,NPTH,ComponentDrill
T4C1.700
; #@! TA.AperFunction,NonPlated,NPTH,ComponentDrill
T5C5.000
%
G90
G05
T1
X25.692Y-69.792
X31.9Y-53.6
X42.1Y-44.7
X42.722Y-25.722
X47.377Y-63.477
X53.517Y-47.517
X59.1Y-45.6
X59.587Y-31.587
X65.712Y-65.412
X69.342Y-37.846
X71.937Y-49.337
X77.957Y-33.557
X80.997Y-75.297
X85.7Y-72.1
X86.772Y-72.528
X87.252Y-59.252
X93.422Y-43.222
X96.709Y-100.509
X97.762Y-81.762
X103.4Y-78.4
X103.872Y-65.872
X110.192Y-49.692
X111.131Y-68.25
X111.915Y-113.685
X112.776Y-57.15
X115.062Y-76.962
X121.412Y-88.138
X129.26Y-87.83
X152.1Y-76.9
X152.17Y-82.26
X155.06Y-79.029
X162.47Y-118.458
X164.382Y-51.418
X170.532Y-67.232
X172.466Y-77.978
X176.3Y-83.3
X177.786Y-101.814
X180.992Y-44.908
X187.152Y-60.648
X188.9Y-70.7
X193.292Y-76.608
X196.352Y-35.048
X202.5Y-50.9
X206.0Y-62.0
X208.6Y-66.8
X214.4Y-33.2
X220.962Y-49.038
X227.132Y-65.268
X229.934Y-60.226
X231.451Y-27.649
X242.492Y-55.308
X248.662Y-71.238
X251.426Y-66.374
T2
X131.885Y-66.245
X131.885Y-68.785
X131.885Y-71.325
X131.885Y-73.865
X131.885Y-76.405
X131.885Y-78.945
X131.885Y-81.485
X131.885Y-84.025
X131.885Y-86.565
X134.425Y-86.775
X136.965Y-86.775
X139.505Y-86.775
X142.045Y-86.775
X144.585Y-86.775
X147.125Y-66.245
X147.125Y-68.785
X147.125Y-71.325
X147.125Y-73.865
X147.125Y-76.405
X147.125Y-78.945
X147.125Y-81.485
X147.125Y-84.025
X147.125Y-86.565
T3
X21.282Y-74.891
X25.262Y-78.574
X27.435Y-58.908
X31.415Y-62.592
X38.192Y-30.941
X42.172Y-34.624
X42.812Y-68.721
X46.792Y-72.404
X48.982Y-52.731
X52.962Y-56.414
X55.115Y-36.758
X59.095Y-40.442
X61.262Y-70.551
X65.242Y-74.234
X67.422Y-54.551
X71.402Y-58.234
X73.592Y-38.601
X76.632Y-80.361
X77.572Y-42.284
X80.612Y-84.044
X82.792Y-64.381
X86.772Y-68.064
X88.952Y-48.391
X91.897Y-105.321
X92.932Y-52.074
X93.245Y-86.958
X95.679Y-109.208
X97.225Y-90.642
X99.422Y-71.001
X103.402Y-74.684
X105.562Y-55.011
X106.087Y-117.121
X108.138Y-122.142
X109.542Y-58.694
X164.098Y-58.439
X165.901Y-124.193
X169.515Y-58.702
X170.258Y-74.409
X170.922Y-122.142
X175.675Y-74.672
X176.418Y-90.379
X177.962Y-109.222
X180.718Y-51.819
X181.835Y-90.642
X183.385Y-109.201
X186.135Y-52.082
X186.871Y-67.791
X192.288Y-68.054
X193.011Y-83.761
X196.078Y-42.009
X198.428Y-84.024
X201.495Y-42.272
X202.243Y-57.982
X207.66Y-58.245
X208.411Y-73.951
X213.828Y-74.214
X214.541Y-40.181
X219.958Y-40.444
X220.698Y-56.169
X226.115Y-56.432
X226.851Y-72.141
X231.451Y-34.361
X232.268Y-72.404
X236.868Y-34.624
X242.218Y-62.319
X247.635Y-62.582
X248.388Y-78.309
X253.805Y-78.572
T4
X22.112Y-71.149
X28.265Y-55.166
X32.448Y-74.911
X38.601Y-58.929
X39.022Y-27.199
X43.642Y-64.979
X49.358Y-30.961
X49.812Y-48.989
X53.978Y-68.741
X55.945Y-33.016
X60.148Y-52.751
X62.092Y-66.809
X66.281Y-36.779
X68.252Y-50.809
X72.428Y-70.571
X74.422Y-34.859
X77.462Y-76.619
X78.588Y-54.571
X83.622Y-60.639
X84.758Y-38.621
X87.798Y-80.381
X89.782Y-44.649
X92.922Y-101.628
X93.958Y-64.401
X94.075Y-83.216
X100.118Y-48.411
X100.252Y-67.259
X103.048Y-105.926
X104.411Y-86.979
X106.392Y-51.269
X108.421Y-114.081
X110.588Y-71.021
X116.199Y-121.859
X116.728Y-55.031
X162.329Y-55.039
X162.861Y-121.859
X168.489Y-71.009
X170.639Y-114.081
X172.665Y-51.276
X174.649Y-86.979
X176.017Y-105.919
X178.825Y-67.246
X178.949Y-48.419
X184.985Y-83.216
X185.102Y-64.391
X186.143Y-101.621
X189.285Y-44.656
X191.242Y-80.361
X194.309Y-38.609
X195.438Y-60.629
X200.473Y-54.582
X201.578Y-76.599
X204.645Y-34.846
X206.642Y-70.551
X210.81Y-50.82
X212.772Y-36.781
X216.978Y-66.789
X218.929Y-52.769
X223.108Y-33.019
X225.082Y-68.741
X229.265Y-49.006
X229.682Y-30.961
X235.418Y-64.979
X240.018Y-27.199
X240.449Y-58.919
X246.619Y-74.909
X250.785Y-55.156
X256.955Y-71.146
T5
X27.28Y-73.03
X33.433Y-57.048
X44.19Y-29.08
X48.81Y-66.86
X54.98Y-50.87
X61.113Y-34.898
X67.26Y-68.69
X73.42Y-52.69
X79.59Y-36.74
X82.63Y-78.5
X88.79Y-62.52
X94.95Y-46.53
X97.985Y-103.777
X99.243Y-85.098
X105.42Y-69.14
X111.56Y-53.15
X112.31Y-117.97
X166.75Y-117.97
X167.497Y-53.158
X173.657Y-69.128
X179.817Y-85.098
X181.08Y-103.77
X184.117Y-46.538
X190.27Y-62.51
X196.41Y-78.48
X199.477Y-36.728
X205.642Y-52.701
X211.81Y-68.67
X217.94Y-34.9
X224.097Y-50.888
X230.25Y-66.86
X234.85Y-29.08
X245.617Y-57.038
X251.787Y-73.028
T0
M30
