M48
METRIC,TZ
T1C0.400
T2C0.800
T3C1.200
%
G90
G05
T1
X25692Y-69792
X31900Y-53600
X42100Y-44700
X42722Y-25722
X47377Y-63477
X53517Y-47517
X59100Y-45600
X59587Y-31587
X65712Y-65412
X69342Y-37846
X71937Y-49337
X77957Y-33557
X80997Y-75297
X85700Y-72100
X86772Y-72528
X87252Y-59252
X93422Y-43222
X96709Y-100509
X97762Y-81762
X103400Y-78400
X103872Y-65872
X110192Y-49692
X111131Y-68250
X111915Y-113685
X112776Y-57150
X115062Y-76962
X121412Y-88138
X129260Y-87830
X152100Y-76900
X152170Y-82260
X155060Y-79029
X162470Y-118458
X164382Y-51418
X170532Y-67232
X172466Y-77978
X176300Y-83300
X177786Y-101814
X180992Y-44908
X187152Y-60648
X188900Y-70700
X193292Y-76608
X196352Y-35048
X202500Y-50900
X206000Y-62000
X208600Y-66800
X214400Y-33200
X220962Y-49038
X227132Y-65268
X229934Y-60226
X231451Y-27649
X242492Y-55308
X248662Y-71238
X251426Y-66374
T2
X131885Y-66245
X131885Y-68785
X131885Y-71325
X131885Y-73865
X131885Y-76405
X131885Y-78945
X131885Y-81485
X131885Y-84025
X131885Y-86565
X134425Y-86775
X136965Y-86775
X139505Y-86775
X142045Y-86775
X144585Y-86775
X147125Y-66245
X147125Y-68785
X147125Y-71325
X147125Y-73865
X147125Y-76405
X147125Y-78945
X147125Y-81485
X147125Y-84025
X147125Y-86565
T3
X21282Y-74891
X25262Y-78574
X27435Y-58908
X31415Y-62592
X38192Y-30941
X42172Y-34624
X42812Y-68721
X46792Y-72404
X48982Y-52731
X52962Y-56414
X55115Y-36758
X59095Y-40442
X61262Y-70551
X65242Y-74234
X67422Y-54551
X71402Y-58234
X73592Y-38601
X76632Y-80361
X77572Y-42284
X80612Y-84044
X82792Y-64381
X86772Y-68064
X88952Y-48391
X91897Y-105321
X92932Y-52074
X93245Y-86958
X95679Y-109208
X97225Y-90642
X99422Y-71001
X103402Y-74684
X105562Y-55011
X106087Y-117121
X108138Y-122142
X109542Y-58694
X164098Y-58439
X165901Y-124193
X169515Y-58702
X170258Y-74409
X170922Y-122142
X175675Y-74672
X176418Y-90379
X177962Y-109222
X180718Y-51819
X181835Y-90642
X183385Y-109201
X186135Y-52082
X186871Y-67791
X192288Y-68054
X193011Y-83761
X196078Y-42009
X198428Y-84024
X201495Y-42272
X202243Y-57982
X207660Y-58245
X208411Y-73951
X213828Y-74214
X214541Y-40181
X219958Y-40444
X220698Y-56169
X226115Y-56432
X226851Y-72141
X231451Y-34361
X232268Y-72404
X236868Y-34624
X242218Y-62319
X247635Y-62582
X248388Y-78309
X253805Y-78572
T0
M30
