M48
METRIC,TZ
T1C1.700
T2C5.000
%
G90
G05
T1
X22112Y-71149
X28265Y-55166
X32448Y-74911
X38601Y-58929
X39022Y-27199
X43642Y-64979
X49358Y-30961
X49812Y-48989
X53978Y-68741
X55945Y-33016
X60148Y-52751
X62092Y-66809
X66281Y-36779
X68252Y-50809
X72428Y-70571
X74422Y-34859
X77462Y-76619
X78588Y-54571
X83622Y-60639
X84758Y-38621
X87798Y-80381
X89782Y-44649
X92922Y-101628
X93958Y-64401
X94075Y-83216
X100118Y-48411
X100252Y-67259
X103048Y-105926
X104411Y-86979
X106392Y-51269
X108421Y-114081
X110588Y-71021
X116199Y-121859
X116728Y-55031
X162329Y-55039
X162861Y-121859
X168489Y-71009
X170639Y-114081
X172665Y-51276
X174649Y-86979
X176017Y-105919
X178825Y-67246
X178949Y-48419
X184985Y-83216
X185102Y-64391
X186143Y-101621
X189285Y-44656
X191242Y-80361
X194309Y-38609
X195438Y-60629
X200473Y-54582
X201578Y-76599
X204645Y-34846
X206642Y-70551
X210810Y-50820
X212772Y-36781
X216978Y-66789
X218929Y-52769
X223108Y-33019
X225082Y-68741
X229265Y-49006
X229682Y-30961
X235418Y-64979
X240018Y-27199
X240449Y-58919
X246619Y-74909
X250785Y-55156
X256955Y-71146
T2
X27280Y-73030
X33433Y-57048
X44190Y-29080
X48810Y-66860
X54980Y-50870
X61113Y-34898
X67260Y-68690
X73420Y-52690
X79590Y-36740
X82630Y-78500
X88790Y-62520
X94950Y-46530
X97985Y-103777
X99243Y-85098
X105420Y-69140
X111560Y-53150
X112310Y-117970
X166750Y-117970
X167497Y-53158
X173657Y-69128
X179817Y-85098
X181080Y-103770
X184117Y-46538
X190270Y-62510
X196410Y-78480
X199477Y-36728
X205642Y-52701
X211810Y-68670
X217940Y-34900
X224097Y-50888
X230250Y-66860
X234850Y-29080
X245617Y-57038
X251787Y-73028
T0
M30
