%TF.GenerationSoftware,KiCad,Pcbnew,(6.0.11)*%
%TF.CreationDate,2024-03-12T23:46:52+09:00*%
%TF.ProjectId,gku34,676b7533-342e-46b6-9963-61645f706362,rev?*%
%TF.SameCoordinates,Original*%
%TF.FileFunction,Profile,NP*%
%FSLAX46Y46*%
G04 Gerber Fmt 4.6, Leading zero omitted, Abs format (unit mm)*
G04 Created by KiCad (PCBNEW (6.0.11)) date 2024-03-12 23:46:52*
%MOMM*%
%LPD*%
G01*
G04 APERTURE LIST*
%TA.AperFunction,Profile*%
%ADD10C,0.250000*%
%TD*%
%ADD11C,0.250000*%
G04 APERTURE END LIST*
D10*
X113362219Y-131061425D02*
X125383034Y-119040610D01*
X91907698Y-92501796D02*
X85455516Y-107702185D01*
X125383034Y-116919290D02*
X115239825Y-106776080D01*
X145530003Y-64629208D02*
X145530003Y-85133358D01*
X165697787Y-131061425D02*
G75*
G03*
X167819107Y-131061425I1060660J1060659D01*
G01*
X85455551Y-107702200D02*
G75*
G03*
X86250176Y-109669039I1380749J-586100D01*
G01*
X223760539Y-78265264D02*
G75*
G03*
X225683077Y-79161784I1409461J512864D01*
G01*
X99220133Y-116919340D02*
G75*
G03*
X99220083Y-119040610I1060567J-1060660D01*
G01*
X245292247Y-84432013D02*
X241304591Y-73476018D01*
X16700946Y-79816468D02*
X31845190Y-85328522D01*
X115004623Y-104959901D02*
G75*
G03*
X115239825Y-106776080I1295877J-755499D01*
G01*
X239419191Y-16789697D02*
X207144139Y-28536856D01*
X262359053Y-79816449D02*
G75*
G03*
X263255568Y-77893899I-513053J1409549D01*
G01*
X222700027Y-75351628D02*
X207884792Y-80743933D01*
D11*
X164055364Y-104959912D02*
X163456241Y-103935599D01*
X162888549Y-102975244D01*
X162348065Y-102076785D01*
X161830565Y-101238162D01*
X161331829Y-100457313D01*
X160847633Y-99732177D01*
X160373756Y-99060692D01*
X159905975Y-98440797D01*
X159440067Y-97870431D01*
X158971810Y-97347532D01*
X158496983Y-96870040D01*
X158011363Y-96435893D01*
X157510727Y-96043030D01*
X156990853Y-95689389D01*
X156447518Y-95372910D01*
X155876502Y-95091530D01*
X155273580Y-94843189D01*
X154634531Y-94625826D01*
X153955133Y-94437378D01*
X153231163Y-94275786D01*
X152458399Y-94138987D01*
X151632619Y-94024920D01*
X150749600Y-93931524D01*
X149805119Y-93856738D01*
X148794956Y-93798501D01*
X147714887Y-93754750D01*
X146560689Y-93723426D01*
X145328142Y-93702466D01*
X144013022Y-93689810D01*
X142611107Y-93683395D01*
X141118174Y-93681162D01*
X139530003Y-93681048D01*
D10*
X125383084Y-119040660D02*
G75*
G03*
X125383034Y-116919290I-1060684J1060660D01*
G01*
X15804416Y-77893891D02*
G75*
G03*
X16700946Y-79816468I1409584J-513009D01*
G01*
X245292217Y-84432024D02*
G75*
G03*
X247214816Y-85328522I1409583J513124D01*
G01*
D11*
X154502178Y-48768330D02*
X154499346Y-49989508D01*
X154492592Y-51146770D01*
X154480515Y-52241827D01*
X154461718Y-53276390D01*
X154434803Y-54252169D01*
X154398371Y-55170876D01*
X154351024Y-56034221D01*
X154291364Y-56843914D01*
X154217992Y-57601668D01*
X154129510Y-58309191D01*
X154024520Y-58968196D01*
X153901624Y-59580392D01*
X153759423Y-60147491D01*
X153596519Y-60671204D01*
X153411513Y-61153240D01*
X153203009Y-61595312D01*
X152969606Y-61999130D01*
X152709908Y-62366404D01*
X152422515Y-62698845D01*
X152106029Y-62998165D01*
X151759052Y-63266073D01*
X151380187Y-63504281D01*
X150968034Y-63714499D01*
X150521195Y-63898438D01*
X150038272Y-64057809D01*
X149517866Y-64194324D01*
X148958580Y-64309691D01*
X148359016Y-64405623D01*
X147717774Y-64483829D01*
X147033456Y-64546022D01*
X146304665Y-64593911D01*
X145530003Y-64629208D01*
D10*
X192809825Y-109669028D02*
G75*
G03*
X193604490Y-107702185I-586025J1380728D01*
G01*
X100444992Y-115694381D02*
X99220083Y-116919290D01*
X241341771Y-17686202D02*
G75*
G03*
X239419191Y-16789697I-1409571J-513098D01*
G01*
X133530003Y-64629208D02*
X133530003Y-85133358D01*
X262359060Y-79816468D02*
X247214816Y-85328522D01*
X71231089Y-84976126D02*
X91907698Y-92501796D01*
D11*
X115004642Y-104959912D02*
X115603764Y-103935599D01*
X116171456Y-102975244D01*
X116711940Y-102076785D01*
X117229440Y-101238162D01*
X117728176Y-100457313D01*
X118212372Y-99732177D01*
X118686249Y-99060692D01*
X119154030Y-98440797D01*
X119619938Y-97870431D01*
X120088195Y-97347532D01*
X120563022Y-96870040D01*
X121048642Y-96435893D01*
X121549278Y-96043030D01*
X122069152Y-95689389D01*
X122612487Y-95372910D01*
X123183503Y-95091530D01*
X123786425Y-94843189D01*
X124425474Y-94625826D01*
X125104872Y-94437378D01*
X125828842Y-94275786D01*
X126601606Y-94138987D01*
X127427386Y-94024920D01*
X128310405Y-93931524D01*
X129254886Y-93856738D01*
X130265049Y-93798501D01*
X131345118Y-93754750D01*
X132499316Y-93723426D01*
X133731863Y-93702466D01*
X135046983Y-93689810D01*
X136448898Y-93683395D01*
X137941831Y-93681162D01*
X139530003Y-93681048D01*
D10*
X204051166Y-24424689D02*
X188076391Y-30239031D01*
X192809830Y-109669039D02*
X178615014Y-115694381D01*
X207828917Y-84976126D02*
X187152308Y-92501796D01*
X187152308Y-92501796D02*
X193604490Y-107702185D01*
X33767759Y-84432013D02*
X37755415Y-73476018D01*
X153676972Y-116919290D02*
X163820181Y-106776080D01*
X156476125Y-45952472D02*
G75*
G03*
X154502178Y-48768330I1025975J-2819028D01*
G01*
X179839923Y-119040610D02*
X167819107Y-131061425D01*
X188076385Y-30239016D02*
G75*
G03*
X187179883Y-32161600I512915J-1409484D01*
G01*
X71915867Y-28536856D02*
X73086271Y-25321197D01*
X86250176Y-109669039D02*
X100444992Y-115694381D01*
X179839973Y-119040660D02*
G75*
G03*
X179839923Y-116919290I-1060673J1060660D01*
G01*
X223760508Y-78265275D02*
X222700027Y-75351628D01*
X163820167Y-106776066D02*
G75*
G03*
X164055364Y-104959912I-1060667J1060666D01*
G01*
X91039489Y-34471224D02*
X122583890Y-45952447D01*
X133530003Y-85133358D02*
X139530003Y-85133358D01*
X205973724Y-25321201D02*
G75*
G03*
X204051166Y-24424689I-1409524J-512999D01*
G01*
X99220083Y-119040610D02*
X111240899Y-131061425D01*
X56359979Y-75351628D02*
X71175214Y-80743933D01*
X188020517Y-34471224D02*
X156476116Y-45952447D01*
X31845178Y-85328556D02*
G75*
G03*
X33767759Y-84432013I513022J1409556D01*
G01*
X187179883Y-32161600D02*
X188020517Y-34471224D01*
X53376956Y-79161709D02*
G75*
G03*
X55299498Y-78265275I513044J1409509D01*
G01*
X263255568Y-77893899D02*
X241341760Y-17686206D01*
X111240899Y-131061425D02*
G75*
G03*
X113362219Y-131061425I1060660J1060659D01*
G01*
X207828900Y-84976078D02*
G75*
G03*
X208725426Y-83053557I-512900J1409478D01*
G01*
D11*
X124557828Y-48768330D02*
X124560659Y-49989508D01*
X124567413Y-51146770D01*
X124579490Y-52241827D01*
X124598287Y-53276390D01*
X124625202Y-54252169D01*
X124661634Y-55170876D01*
X124708981Y-56034221D01*
X124768641Y-56843914D01*
X124842013Y-57601668D01*
X124930495Y-58309191D01*
X125035485Y-58968196D01*
X125158381Y-59580392D01*
X125300582Y-60147491D01*
X125463486Y-60671204D01*
X125648492Y-61153240D01*
X125856996Y-61595312D01*
X126090399Y-61999130D01*
X126350097Y-62366404D01*
X126637490Y-62698845D01*
X126953976Y-62998165D01*
X127300953Y-63266073D01*
X127679818Y-63504281D01*
X128091971Y-63714499D01*
X128538810Y-63898438D01*
X129021733Y-64057809D01*
X129542139Y-64194324D01*
X130101425Y-64309691D01*
X130700989Y-64405623D01*
X131342231Y-64483829D01*
X132026549Y-64546022D01*
X132755340Y-64593911D01*
X133530003Y-64629208D01*
D10*
X37755415Y-73476018D02*
X53376929Y-79161784D01*
X91880168Y-32161617D02*
G75*
G03*
X90983615Y-30239031I-1409568J513017D01*
G01*
X75008841Y-24424685D02*
G75*
G03*
X73086271Y-25321197I-513041J-1409515D01*
G01*
X145530003Y-85133358D02*
X139530003Y-85133358D01*
X178615014Y-115694381D02*
X179839923Y-116919290D01*
X71175214Y-80743933D02*
X70334580Y-83053557D01*
X39640815Y-16789697D02*
X71915867Y-28536856D01*
X241304591Y-73476018D02*
X225683077Y-79161784D01*
X124557785Y-48768330D02*
G75*
G03*
X122583890Y-45952447I-2999985J-3170D01*
G01*
X55299498Y-78265275D02*
X56359979Y-75351628D01*
X207144139Y-28536856D02*
X205973735Y-25321197D01*
X207884792Y-80743933D02*
X208725426Y-83053557D01*
X75008840Y-24424689D02*
X90983615Y-30239031D01*
X15804438Y-77893899D02*
X37718246Y-17686206D01*
X153676922Y-116919240D02*
G75*
G03*
X153676972Y-119040610I1060678J-1060660D01*
G01*
X165697787Y-131061425D02*
X153676972Y-119040610D01*
X91880123Y-32161600D02*
X91039489Y-34471224D01*
X70334585Y-83053559D02*
G75*
G03*
X71231089Y-84976126I1409515J-513041D01*
G01*
X39640829Y-16789659D02*
G75*
G03*
X37718246Y-17686206I-513029J-1409541D01*
G01*
M02*
