M48
; DRILL file {KiCad (6.0.11)} date Tue Mar 12 23:46:52 2024
; FORMAT={-:-/ absolute / metric / decimal}
; #@! TF.CreationDate,2024-03-12T23:46:52+09:00
; #@! TF.GenerationSoftware,Kicad,Pcbnew,(6.0.11)
; #@! TF.FileFunction,NonPlated,1,2,NPTH
FMAT,2
METRIC
; #@! TA.AperFunction,NonPlated,NPTH,ComponentDrill
T1C1.700
; #@! TA.AperFunction,NonPlated,NPTH,ComponentDrill
T2C5.000
%
G90
G05
T1
X22.112Y-71.149
X28.265Y-55.166
X32.448Y-74.911
X38.601Y-58.929
X39.022Y-27.199
X43.642Y-64.979
X49.358Y-30.961
X49.812Y-48.989
X53.978Y-68.741
X55.945Y-33.016
X60.148Y-52.751
X62.092Y-66.809
X66.281Y-36.779
X68.252Y-50.809
X72.428Y-70.571
X74.422Y-34.859
X77.462Y-76.619
X78.588Y-54.571
X83.622Y-60.639
X84.758Y-38.621
X87.798Y-80.381
X89.782Y-44.649
X92.922Y-101.628
X93.958Y-64.401
X94.075Y-83.216
X100.118Y-48.411
X100.252Y-67.259
X103.048Y-105.926
X104.411Y-86.979
X106.392Y-51.269
X108.421Y-114.081
X110.588Y-71.021
X116.199Y-121.859
X116.728Y-55.031
X162.329Y-55.039
X162.861Y-121.859
X168.489Y-71.009
X170.639Y-114.081
X172.665Y-51.276
X174.649Y-86.979
X176.017Y-105.919
X178.825Y-67.246
X178.949Y-48.419
X184.985Y-83.216
X185.102Y-64.391
X186.143Y-101.621
X189.285Y-44.656
X191.242Y-80.361
X194.309Y-38.609
X195.438Y-60.629
X200.473Y-54.582
X201.578Y-76.599
X204.645Y-34.846
X206.642Y-70.551
X210.81Y-50.82
X212.772Y-36.781
X216.978Y-66.789
X218.929Y-52.769
X223.108Y-33.019
X225.082Y-68.741
X229.265Y-49.006
X229.682Y-30.961
X235.418Y-64.979
X240.018Y-27.199
X240.449Y-58.919
X246.619Y-74.909
X250.785Y-55.156
X256.955Y-71.146
T2
X27.28Y-73.03
X33.433Y-57.048
X44.19Y-29.08
X48.81Y-66.86
X54.98Y-50.87
X61.113Y-34.898
X67.26Y-68.69
X73.42Y-52.69
X79.59Y-36.74
X82.63Y-78.5
X88.79Y-62.52
X94.95Y-46.53
X97.985Y-103.777
X99.243Y-85.098
X105.42Y-69.14
X111.56Y-53.15
X112.31Y-117.97
X166.75Y-117.97
X167.497Y-53.158
X173.657Y-69.128
X179.817Y-85.098
X181.08Y-103.77
X184.117Y-46.538
X190.27Y-62.51
X196.41Y-78.48
X199.477Y-36.728
X205.642Y-52.701
X211.81Y-68.67
X217.94Y-34.9
X224.097Y-50.888
X230.25Y-66.86
X234.85Y-29.08
X245.617Y-57.038
X251.787Y-73.028
T0
M30
